<svg width="263" height="41" viewBox="0 0 263 41" fill="none" xmlns="http://www.w3.org/2000/svg">
<path d="M10.336 32.238C8.74933 32.238 7.32133 31.966 6.052 31.422C4.78267 30.8553 3.78533 30.062 3.06 29.042C2.33467 28.022 1.972 26.832 1.972 25.472H6.12C6.21067 26.492 6.60733 27.3307 7.31 27.988C8.03533 28.6453 9.044 28.974 10.336 28.974C11.6733 28.974 12.716 28.6567 13.464 28.022C14.212 27.3647 14.586 26.526 14.586 25.506C14.586 24.7127 14.348 24.0667 13.872 23.568C13.4187 23.0693 12.8407 22.684 12.138 22.412C11.458 22.14 10.506 21.8453 9.282 21.528C7.74067 21.12 6.48267 20.712 5.508 20.304C4.556 19.8733 3.74 19.216 3.06 18.332C2.38 17.448 2.04 16.2693 2.04 14.796C2.04 13.436 2.38 12.246 3.06 11.226C3.74 10.206 4.692 9.424 5.916 8.88C7.14 8.336 8.55667 8.064 10.166 8.064C12.4553 8.064 14.3253 8.642 15.776 9.798C17.2493 10.9313 18.0653 12.4953 18.224 14.49H13.94C13.872 13.6287 13.464 12.892 12.716 12.28C11.968 11.668 10.982 11.362 9.758 11.362C8.64733 11.362 7.74067 11.6453 7.038 12.212C6.33533 12.7787 5.984 13.5947 5.984 14.66C5.984 15.3853 6.19933 15.986 6.63 16.462C7.08333 16.9153 7.65 17.278 8.33 17.55C9.01 17.822 9.93933 18.1167 11.118 18.434C12.682 18.8647 13.9513 19.2953 14.926 19.726C15.9233 20.1567 16.762 20.8253 17.442 21.732C18.1447 22.616 18.496 23.806 18.496 25.302C18.496 26.5033 18.1673 27.6367 17.51 28.702C16.8753 29.7673 15.9347 30.6287 14.688 31.286C13.464 31.9207 12.0133 32.238 10.336 32.238ZM26.9115 8.37V23.432C26.9115 25.2227 27.3762 26.5713 28.3055 27.478C29.2575 28.3847 30.5722 28.838 32.2495 28.838C33.9495 28.838 35.2642 28.3847 36.1935 27.478C37.1455 26.5713 37.6215 25.2227 37.6215 23.432V8.37H41.4975V23.364C41.4975 25.2907 41.0782 26.9227 40.2395 28.26C39.4009 29.5973 38.2789 30.5947 36.8735 31.252C35.4682 31.9093 33.9155 32.238 32.2155 32.238C30.5155 32.238 28.9629 31.9093 27.5575 31.252C26.1749 30.5947 25.0755 29.5973 24.2595 28.26C23.4435 26.9227 23.0355 25.2907 23.0355 23.364V8.37H26.9115ZM63.0681 15.408C63.0681 16.6093 62.7848 17.7427 62.2181 18.808C61.6515 19.8733 60.7448 20.746 59.4981 21.426C58.2515 22.0833 56.6535 22.412 54.7041 22.412H50.4201V32H46.5441V8.37H54.7041C56.5175 8.37 58.0475 8.68733 59.2941 9.322C60.5635 9.934 61.5041 10.7727 62.1161 11.838C62.7508 12.9033 63.0681 14.0933 63.0681 15.408ZM54.7041 19.25C56.1775 19.25 57.2768 18.9213 58.0021 18.264C58.7275 17.584 59.0901 16.632 59.0901 15.408C59.0901 12.824 57.6281 11.532 54.7041 11.532H50.4201V19.25H54.7041ZM70.6408 11.498V18.434H78.8008V21.596H70.6408V28.838H79.8208V32H66.7648V8.336H79.8208V11.498H70.6408ZM96.8689 32L91.4289 22.548H88.4709V32H84.5949V8.37H92.7549C94.5683 8.37 96.0983 8.68733 97.3449 9.322C98.6143 9.95666 99.5549 10.8067 100.167 11.872C100.802 12.9373 101.119 14.1273 101.119 15.442C101.119 16.9833 100.666 18.3887 99.7589 19.658C98.8749 20.9047 97.5036 21.7547 95.6449 22.208L101.493 32H96.8689ZM88.4709 19.454H92.7549C94.2056 19.454 95.2936 19.0913 96.0189 18.366C96.7669 17.6407 97.1409 16.666 97.1409 15.442C97.1409 14.218 96.7783 13.266 96.0529 12.586C95.3276 11.8833 94.2283 11.532 92.7549 11.532H88.4709V19.454ZM109.953 28.872H117.943V32H106.077V8.37H109.953V28.872ZM125.061 11.498V18.434H133.221V21.596H125.061V28.838H134.241V32H121.185V8.336H134.241V11.498H125.061ZM156.117 15.17C155.505 13.9913 154.655 13.1073 153.567 12.518C152.479 11.906 151.221 11.6 149.793 11.6C148.229 11.6 146.835 11.9513 145.611 12.654C144.387 13.3567 143.424 14.354 142.721 15.646C142.041 16.938 141.701 18.434 141.701 20.134C141.701 21.834 142.041 23.3413 142.721 24.656C143.424 25.948 144.387 26.9453 145.611 27.648C146.835 28.3507 148.229 28.702 149.793 28.702C151.901 28.702 153.612 28.1127 154.927 26.934C156.242 25.7553 157.046 24.1573 157.341 22.14H148.467V19.046H161.489V22.072C161.24 23.908 160.582 25.5967 159.517 27.138C158.474 28.6793 157.103 29.9147 155.403 30.844C153.726 31.7507 151.856 32.204 149.793 32.204C147.572 32.204 145.543 31.694 143.707 30.674C141.871 29.6313 140.409 28.192 139.321 26.356C138.256 24.52 137.723 22.446 137.723 20.134C137.723 17.822 138.256 15.748 139.321 13.912C140.409 12.076 141.871 10.648 143.707 9.628C145.566 8.58533 147.594 8.064 149.793 8.064C152.309 8.064 154.542 8.68733 156.491 9.934C158.463 11.158 159.891 12.9033 160.775 15.17H156.117ZM182.414 15.17C181.802 13.9913 180.952 13.1073 179.864 12.518C178.776 11.906 177.518 11.6 176.09 11.6C174.526 11.6 173.132 11.9513 171.908 12.654C170.684 13.3567 169.72 14.354 169.018 15.646C168.338 16.938 167.998 18.434 167.998 20.134C167.998 21.834 168.338 23.3413 169.018 24.656C169.72 25.948 170.684 26.9453 171.908 27.648C173.132 28.3507 174.526 28.702 176.09 28.702C178.198 28.702 179.909 28.1127 181.224 26.934C182.538 25.7553 183.343 24.1573 183.638 22.14H174.764V19.046H187.786V22.072C187.536 23.908 186.879 25.5967 185.814 27.138C184.771 28.6793 183.4 29.9147 181.7 30.844C180.022 31.7507 178.152 32.204 176.09 32.204C173.868 32.204 171.84 31.694 170.004 30.674C168.168 29.6313 166.706 28.192 165.618 26.356C164.552 24.52 164.02 22.446 164.02 20.134C164.02 17.822 164.552 15.748 165.618 13.912C166.706 12.076 168.168 10.648 170.004 9.628C171.862 8.58533 173.891 8.064 176.09 8.064C178.606 8.064 180.838 8.68733 182.788 9.934C184.76 11.158 186.188 12.9033 187.072 15.17H182.414ZM195.485 11.498V18.434H203.645V21.596H195.485V28.838H204.665V32H191.609V8.336H204.665V11.498H195.485ZM221.713 32L216.273 22.548H213.315V32H209.439V8.37H217.599C219.412 8.37 220.942 8.68733 222.189 9.322C223.458 9.95666 224.399 10.8067 225.011 11.872C225.645 12.9373 225.963 14.1273 225.963 15.442C225.963 16.9833 225.509 18.3887 224.603 19.658C223.719 20.9047 222.347 21.7547 220.489 22.208L226.337 32H221.713ZM213.315 19.454H217.599C219.049 19.454 220.137 19.0913 220.863 18.366C221.611 17.6407 221.985 16.666 221.985 15.442C221.985 14.218 221.622 13.266 220.897 12.586C220.171 11.8833 219.072 11.532 217.599 11.532H213.315V19.454ZM245.167 27.172H235.273L233.573 32H229.527L237.993 8.336H242.481L250.947 32H246.867L245.167 27.172ZM244.079 24.01L240.237 13.028L236.361 24.01H244.079Z" fill="black"/>
<path d="M262.958 22.7854C262.813 22.1864 262.086 21.8683 261.577 21.6626C260.36 21.1758 258.615 20.9132 257.288 21.0259C255.98 21.1382 254.29 21.5127 253.472 22.1488C253.236 22.3363 253.072 22.5045 253.018 22.9349C252.909 23.852 253.327 25.2182 253.581 26.0418C253.653 26.0043 253.744 25.892 253.962 25.7797C254.398 25.5551 254.925 25.4052 255.416 25.3122C257.179 24.9377 259.632 24.8997 261.468 24.8997C261.686 24.8997 261.904 24.8997 262.104 24.919C262.304 24.919 262.54 24.9373 262.74 24.9373L262.849 24.4322C262.94 23.9647 263.067 23.2529 262.958 22.7854ZM255.308 23.5339C255.071 24.3011 254.381 24.1893 253.69 24.1893L254.017 22.6915C254.162 22.6732 254.417 22.6915 254.58 22.6915C254.78 22.6915 254.925 22.6915 255.089 22.7479C255.361 22.8602 255.417 23.197 255.308 23.5339ZM256.125 24.226C255.725 24.2452 255.362 24.1517 255.435 23.7026C255.453 23.5903 255.635 22.7291 255.653 22.6915H256.234C256.216 22.8602 256.143 23.1223 256.107 23.2905C256.089 23.4028 256.071 23.4775 256.053 23.5903C256.035 23.6838 255.998 23.852 256.143 23.8148C256.234 23.7961 256.252 23.6838 256.271 23.5903C256.325 23.3281 256.416 22.9165 256.452 22.6919H257.034C257.017 22.8414 256.962 23.0659 256.925 23.2158C256.835 23.7026 256.835 24.1888 256.126 24.2264L256.125 24.226ZM257.597 24.226C257.106 24.226 256.925 23.9083 257.034 23.4216C257.197 22.6168 258.015 22.5416 258.342 22.7295C258.524 22.8414 258.56 22.9724 258.524 23.2346H257.979C257.979 23.1594 257.997 23.0847 257.943 23.0472C257.888 23.01 257.797 23.0472 257.761 23.0847C257.67 23.1782 257.525 23.7401 257.633 23.8148C257.761 23.9083 257.851 23.7209 257.87 23.6274H258.415C258.379 24.0018 258.052 24.2448 257.597 24.226ZM259.451 24.1893V23.9647H259.033L258.924 24.2076H258.361C258.378 24.1517 258.688 23.5522 258.742 23.4592L259.142 22.7103H259.905L260.069 24.2076C259.941 24.1893 259.524 24.2076 259.451 24.1893ZM261.123 23.0847C261.087 23.1594 261.014 23.5339 260.996 23.6274C260.959 23.7773 260.923 24.0206 260.868 24.17H260.287C260.269 24.0766 260.505 23.197 260.505 23.0659H260.142L260.232 22.6544H261.559C261.559 22.7103 261.486 23.0284 261.468 23.0659L261.123 23.0847ZM261.941 24.1893H261.341L261.65 22.6915H262.231L261.94 24.1888L261.941 24.1893ZM260.905 25.5368C260.342 25.5927 259.815 25.6486 259.287 25.7238C258.288 25.8732 257.252 26.1353 256.416 26.491C255.707 26.8091 254.689 27.4452 254.689 28.3999C254.689 28.5493 254.708 28.5493 254.817 28.718C254.98 28.9609 255.199 29.2983 255.362 29.5228C255.889 30.2149 256.834 31.413 257.579 31.8433C257.797 31.9744 257.979 32.0679 258.251 31.9368C258.451 31.8433 258.652 31.6939 258.797 31.5812C259.76 30.7768 261.014 29.1296 261.595 28.0255C261.995 27.2582 262.359 26.3223 262.613 25.424C262.449 25.4057 261.069 25.518 260.905 25.5368ZM259.433 23.5715V23.0284C259.396 23.0659 259.215 23.4963 259.197 23.5715H259.433ZM254.526 23.0284L254.344 23.852C254.599 23.8708 254.672 23.7021 254.708 23.4963C254.762 23.2717 254.835 23.0096 254.526 23.0284Z" fill="black"/>
</svg>
